<svg xmlns="http://www.w3.org/2000/svg" viewBox="0 0 57.72 57.72"><defs><style>.cls-1{fill:none;}</style></defs><g id="Camada_2" data-name="Camada 2"><g id="Camada_1-2" data-name="Camada 1"><rect class="cls-1" width="57.72" height="57.72"/><rect x="31.76" y="13.15" width="25.96" height="7.87" rx="3.94"/><path d="M27.48,15c-.05-.27-.12-.53-.21-.86,0-.07,0-.14-.05-.2s-.13-.37-.21-.6l0-.11-.12-.33c0-.1-.09-.21-.14-.31l-.09-.18c-.08-.17-.15-.34-.24-.5l-.15-.25c-.13-.23-.27-.46-.46-.75a11.28,11.28,0,0,0-1.3-1.58A12.15,12.15,0,0,0,22.83,8c-.22-.15-.46-.29-.75-.46l-.18-.1-.57-.28-.1,0-.33-.15-.32-.11-.19-.08-.53-.18-.27-.07c-.26-.07-.52-.14-.85-.2a10.73,10.73,0,0,0-4.15,0c-.27,0-.53.12-.87.21l-.19,0-.61.21-.11.05-.32.11-.32.15L12,7.16l-.51.24-.25.15c-.23.13-.47.27-.75.46a12,12,0,0,0-1.58,1.3c-.24.25-.48.51-.72.81s-.4.51-.58.78l.81.55h0L7.55,11c-.17.26-.34.53-.5.82l-.11.2c0,.07-.07.14-.06.15a9.4,9.4,0,0,0-.43,1H3.94A3.93,3.93,0,0,0,0,17.09H0A3.93,3.93,0,0,0,3.94,21H6.43A12.71,12.71,0,0,0,7,22.26l0,.1a9.79,9.79,0,0,0,.55.89c.19.28.39.54.63.84a10.21,10.21,0,0,0,.69.77,11.32,11.32,0,0,0,1.64,1.34c.22.15.46.29.76.47l.18.1.57.28.11.05.31.14.33.12.19.07c.17.06.34.13.52.18l.27.07c.26.07.52.14.85.2a11.2,11.2,0,0,0,2,.2A10,10,0,0,0,17.77,28a9.64,9.64,0,0,0,1-.14l.12,0c.31-.06.62-.14.92-.22l.24-.07a.38.38,0,0,0,.15-.06,10.91,10.91,0,0,0,4.31-2.65,11,11,0,0,0,2.75-4.59l0-.09c.09-.33.16-.65.23-1v0a8,8,0,0,0,.15-1.05,8.89,8.89,0,0,0,.06-1A11.5,11.5,0,0,0,27.48,15Zm-5.25,2.77c0,.09,0,.18,0,.27s-.07.33-.11.5A5.56,5.56,0,0,1,20.64,21a5.49,5.49,0,0,1-2.35,1.4l.28.94-.29-.93-.54.12a4.17,4.17,0,0,1-.51.08,5.79,5.79,0,0,1-1.6-.08l-.4-.1-.33.93h0l.19-1-.31-.11-.5-.21L14,22l-.09-.05-.38-.24a5.5,5.5,0,0,1-.87-.74l-.37-.42-.15-.21a4.08,4.08,0,0,1-.28-.44,5.52,5.52,0,0,1-.76-2.79,5.62,5.62,0,0,1,.65-2.63,5.15,5.15,0,0,1,.37-.58l.14-.19a6.12,6.12,0,0,1,.41-.48,5.89,5.89,0,0,1,.89-.75l.35-.21.13-.08.29-.14.5-.2.24-.08-.28-.94h0l.42.9.43-.1a5.76,5.76,0,0,1,2.11,0l.39.1.33-.93h0l-.18,1,.29.1.51.22.23.1.46-.86-.34.94a3.47,3.47,0,0,1,.37.23A5.56,5.56,0,0,1,21.32,14c.08.12.15.24.21.35l.08.13a2,2,0,0,1,.1.21l.24.58.1.27,0,.11a3.45,3.45,0,0,1,.1.43,6.15,6.15,0,0,1,.1,1.15C22.26,17.39,22.25,17.57,22.23,17.75Z"/><rect y="36.7" width="26.71" height="7.87" rx="3.94"/><path d="M53.79,36.7H52c0-.09-.06-.18-.1-.27a1.87,1.87,0,0,0-.15-.32L51.71,36c-.08-.18-.16-.36-.26-.54l-.14-.24c-.14-.23-.27-.47-.41-.66l0-.08A11,11,0,0,0,48,31.58l-.08-.06c-.23-.15-.46-.29-.76-.46L47,31c-.16-.09-.32-.16-.48-.24l-.19-.09L46,30.48l-.32-.12-.18-.06c-.17-.07-.35-.13-.54-.19L44.67,30l-.85-.2a10.87,10.87,0,0,0-4.06,0h-.1l-.86.21-.2.06-.6.2-.11,0-.33.13-.32.14-.19.09-.49.24-.23.14a8.51,8.51,0,0,0-.75.46A11.4,11.4,0,0,0,34,32.86a9.62,9.62,0,0,0-.72.81c-.21.25-.4.51-.58.77l-.07.11a9.41,9.41,0,0,0-.5.82l.83.52-.88-.44-.07.13a.52.52,0,0,0-.06.14,11,11,0,0,0,.13,10.1l0,.09c.17.3.34.58.55.89s.39.54.63.84a8.53,8.53,0,0,0,.7.77,10.72,10.72,0,0,0,1.55,1.29l.08,0c.23.16.47.29.77.47l.17.1.57.28.11,0a2.37,2.37,0,0,0,.32.15l.33.13L38,51l.57.2.27.07c.26.07.53.14.86.2a11.1,11.1,0,0,0,2,.2,10.19,10.19,0,0,0,1.08-.06c.32,0,.64-.08,1-.14l.12,0a9.28,9.28,0,0,0,.91-.22l.25-.07a.47.47,0,0,0,.15-.06A10.85,10.85,0,0,0,52,44.57h1.78a3.94,3.94,0,0,0,0-7.87Zm-6.54,2.9a5.46,5.46,0,0,1,.09,1.16,4.73,4.73,0,0,1,0,.54,2.51,2.51,0,0,1,0,.27,3.22,3.22,0,0,1-.11.5A5.51,5.51,0,0,1,43.4,46l0,0-.53.12a4,4,0,0,1-.52.08,5.79,5.79,0,0,1-1.6-.08,2.6,2.6,0,0,1-.4-.1l-.32.93.18-1-.3-.11-.5-.21-.24-.11-.47.85h0l.36-.92c-.12-.07-.24-.14-.38-.24a6.06,6.06,0,0,1-.88-.74c-.13-.14-.25-.28-.37-.43l-.15-.21c-.1-.14-.19-.28-.28-.43a5.52,5.52,0,0,1-.1-5.41,5.8,5.8,0,0,1,.36-.59l.14-.18a4.93,4.93,0,0,1,.42-.49,5.89,5.89,0,0,1,.88-.75L39,35.8l.12-.07.29-.14.51-.21.23-.08-.27-.94.41.9c.13,0,.26-.07.44-.1a5.7,5.7,0,0,1,2.1,0l.39.1.15,0a2.4,2.4,0,0,1,.31.11l.5.21.26.13.08,0a4.29,4.29,0,0,1,.38.23,5.75,5.75,0,0,1,1.49,1.5l.21.34.89-.42-.81.55c0,.08.07.15.13.29l.21.51a1.69,1.69,0,0,1,.08.24l.94-.28-.91.41A3.34,3.34,0,0,1,47.25,39.6Z"/></g></g></svg>