<svg xmlns="http://www.w3.org/2000/svg" viewBox="0 0 56.05 56.05"><g id="Camada_2" data-name="Camada 2"><g id="Camada_1-2" data-name="Camada 1"><path d="M28,0a28,28,0,1,0,28,28A28,28,0,0,0,28,0Zm0,50.22A22.2,22.2,0,1,1,50.22,28,22.2,22.2,0,0,1,28,50.22Z"/><path d="M31.93,39a3.52,3.52,0,0,1-1.2,2.86,4.14,4.14,0,0,1-5.42,0A3.52,3.52,0,0,1,24.11,39a3.51,3.51,0,0,1,1.2-2.85,4.14,4.14,0,0,1,5.42,0A3.51,3.51,0,0,1,31.93,39Zm-.54-18.28q0,3.41-.26,6.35c-.16,2-.39,4-.67,6H25.67q-.42-3-.69-6t-.28-6.35V13.19h6.69Z"/></g></g></svg>