<svg xmlns="http://www.w3.org/2000/svg" viewBox="0 0 456.6 456.85"><defs><style>.cls-1{fill:#e8a6a6;}.cls-2{fill:#334a9a;}.cls-3{fill:#d30243;}.cls-4{fill:#770b0b;}.cls-5{fill:#f47a7a;}.cls-6{fill:#f4063f;}.cls-7{fill:#bc0036;}.cls-8{fill:none;}.cls-9{fill:#fff;}</style></defs><g id="Camada_2" data-name="Camada 2"><g id="Camada_1-2" data-name="Camada 1"><polygon class="cls-1" points="228.3 134.19 228.3 134.19 228.3 134.19 228.3 134.19"/><path class="cls-2" d="M246.28,307.38A1956.67,1956.67,0,0,0,456.6,134.19h0a1394.12,1394.12,0,0,0-456.6,0c32.15,29.73,67.14,60.26,105.07,91,38.27,31,79.8,62.51,124.73,93.79Q238,313.27,246.28,307.38Z"/><path class="cls-3" d="M456.6,134.19,243.46,4.11a28.07,28.07,0,0,0-29.2,0L0,134.19c71.81-4.87,148.44-7.76,229.4-7.73,80.14,0,156,2.91,227.2,7.73Z"/><path class="cls-4" d="M228.3,134.19V410.1h0v2.95h0Z"/><path class="cls-4" d="M228.3,376.19v-242h0Z"/><rect class="cls-5" x="41.08" y="58.15" width="374.43" height="318.07" rx="30.03"/><path class="cls-6" d="M0,134.19H0V410.1a46.68,46.68,0,0,0,18.45,37.21A1955.89,1955.89,0,0,0,229.8,319,2136.88,2136.88,0,0,1,0,134.19Z"/><path class="cls-7" d="M246.28,307.38Q238,313.27,229.8,319A1955.89,1955.89,0,0,1,18.45,447.31a46.57,46.57,0,0,0,28.3,9.54h363.1A46.77,46.77,0,0,0,456.6,410.1V134.19A1956.67,1956.67,0,0,1,246.28,307.38Z"/><path class="cls-8" d="M228.38,120.19a31.91,31.91,0,1,0,22.56,9.37A31.91,31.91,0,0,0,228.38,120.19Zm-.07,59.2a27.32,27.32,0,1,1,27.35-27.29A27.33,27.33,0,0,1,228.31,179.39Z"/><path class="cls-8" d="M228.36,128.71a23.36,23.36,0,1,0,23.34,23.38A23.35,23.35,0,0,0,228.36,128.71Zm18.36,23.39a18.39,18.39,0,1,1-18.36-18.42,18.39,18.39,0,0,1,18.36,18.42Z"/><path class="cls-8" d="M228.34,137.68a14.39,14.39,0,1,0,14.38,14.4h0A14.38,14.38,0,0,0,228.34,137.68Z"/><path class="cls-9" d="M228.37,124.75a27.32,27.32,0,1,0,27.29,27.35A27.33,27.33,0,0,0,228.37,124.75Zm-.05,50.68a23.36,23.36,0,1,1,23.38-23.34A23.36,23.36,0,0,1,228.32,175.43Z"/><path class="cls-9" d="M228.36,133.68a18.39,18.39,0,1,0,18.36,18.42h0A18.41,18.41,0,0,0,228.36,133.68Zm14.36,18.4a14.39,14.39,0,1,1-14.38-14.4,14.41,14.41,0,0,1,14.38,14.4Z"/><path class="cls-8" d="M228.38,120.19a31.91,31.91,0,1,0,22.56,9.37A31.91,31.91,0,0,0,228.38,120.19Z"/><path class="cls-9" d="M277.24,129.46v0a54.28,54.28,0,0,0-10.61-15.36,53.63,53.63,0,0,0-38.11-16h-.12a54,54,0,0,0-.16,107.9c1.6,0,3.21-.07,4.83-.21v0l32.31-4.12a10.19,10.19,0,0,0,6-17.22,54.29,54.29,0,0,0,5.82-9.74l.05-.12A54.17,54.17,0,0,0,277.24,129.46ZM228.33,184a31.91,31.91,0,1,1,31.93-31.89A31.91,31.91,0,0,1,228.33,184Z"/></g></g></svg>