<svg xmlns="http://www.w3.org/2000/svg" viewBox="0 0 68.91 68.91"><g id="Camada_2" data-name="Camada 2"><g id="Camada_1-2" data-name="Camada 1"><path d="M49.77,37.46v-.05A13.47,13.47,0,0,0,50,36v-.06a14.48,14.48,0,0,0,.08-1.47,15.44,15.44,0,0,0-.28-2.91s0-.06,0-.09c-.07-.38-.17-.75-.27-1.12,0-.13-.06-.26-.1-.38-.09-.29-.19-.58-.3-.86s-.14-.41-.22-.62-.19-.4-.28-.59-.25-.55-.39-.82L48,26.72c-.19-.33-.38-.66-.6-1,0,0,0,0-.06-.08a14.89,14.89,0,0,0-1.84-2.24,15.68,15.68,0,0,0-2.25-1.85l-.08-.06c-.32-.22-.65-.41-1-.6l-.35-.2c-.26-.15-.54-.27-.81-.4l-.6-.27a6.56,6.56,0,0,0-.62-.23c-.28-.1-.56-.21-.85-.3l-.39-.1c-.37-.1-.74-.2-1.12-.27l-.09,0a15.16,15.16,0,0,0-5.8,0l-.1,0c-.38.07-.75.17-1.11.27l-.39.1c-.29.09-.58.2-.86.3s-.41.14-.62.23l-.6.27c-.27.13-.54.25-.81.4l-.35.2c-.33.19-.66.38-1,.6l-.08.06a15.6,15.6,0,0,0-2.24,1.85,14.81,14.81,0,0,0-1,1.1l0,0a12.56,12.56,0,0,0-.82,1.1l-.1.15c-.25.37-.48.75-.7,1.14l-.05.1-.13.21c0,.07-.05.15-.08.22a15.49,15.49,0,0,0,.22,14.41s0,0,0,.06c.23.42.49.82.75,1.21l0,.05c.27.39.56.77.86,1.14l0,0a14.67,14.67,0,0,0,1,1.1,15.15,15.15,0,0,0,2.25,1.85.18.18,0,0,0,.07,0c.32.22.65.41,1,.6l.34.21c.27.14.54.26.82.39l.59.28.62.22c.29.11.57.21.86.3l.39.1c.37.1.73.2,1.11.27l.1,0a15.33,15.33,0,0,0,2.9.28A14.68,14.68,0,0,0,35.94,50H36c.46-.05.91-.12,1.36-.2l.17,0c.44-.09.87-.2,1.3-.32l.12,0,.23-.07a1.33,1.33,0,0,0,.21-.09,15.46,15.46,0,0,0,10-10.35s0,0,0,0A14,14,0,0,0,49.77,37.46Zm-12.39,6.8h0a9.08,9.08,0,0,1-.9.22l-.08,0c-.31.06-.61.1-.92.13h0a10.3,10.3,0,0,1-2.88-.13h0c-.25-.05-.49-.11-.74-.18l-.25-.06-.56-.2c-.14,0-.28-.09-.41-.15s-.26-.12-.39-.18a5.2,5.2,0,0,1-.53-.26l-.23-.13c-.22-.13-.44-.25-.64-.39l-.06,0a10,10,0,0,1-1.6-1.37,8.21,8.21,0,0,1-.67-.77c-.1-.12-.2-.25-.29-.38s-.35-.53-.51-.8a10.18,10.18,0,0,1-.19-9.93,9.12,9.12,0,0,1,.67-1.07c.08-.12.17-.24.26-.35a10.54,10.54,0,0,1,.75-.88A10.09,10.09,0,0,1,28.69,26l.06,0c.2-.14.42-.26.64-.39l.23-.13a5.2,5.2,0,0,1,.53-.26c.13-.06.26-.13.39-.18s.27-.1.41-.15l.56-.2.25-.06c.25-.07.49-.13.74-.18h.06a10.5,10.5,0,0,1,3.79,0h.07l.73.18.25.06.56.2c.14.05.28.09.41.15s.26.12.39.18.36.16.54.26l.22.13c.22.13.44.25.65.39l0,0A10.12,10.12,0,0,1,42.9,28.7l0,.05a6.82,6.82,0,0,1,.39.64l.13.23a5.2,5.2,0,0,1,.26.53c.06.13.13.26.18.39s.1.27.15.41.14.37.2.56l.06.25c.07.25.13.49.18.74a.11.11,0,0,1,0,0,10.77,10.77,0,0,1,.17,2.12c0,.34,0,.67-.07,1,0,.16,0,.32-.07.47a9,9,0,0,1-.2.93,10.18,10.18,0,0,1-6.95,7.18Z"/><path d="M60.84,25H59.48a.89.89,0,0,1-.82-.56l0-.06a.9.9,0,0,1,.17-1l1-1a8.08,8.08,0,0,0,0-11.42l-1.9-1.9a8.06,8.06,0,0,0-11.42,0l-1,1a.92.92,0,0,1-1,.18l0,0a.88.88,0,0,1-.57-.82V8.08A8.09,8.09,0,0,0,35.8,0H33.11A8.09,8.09,0,0,0,25,8.08V9.43a.89.89,0,0,1-.56.82l-.06,0a.92.92,0,0,1-1-.18l-1-1A8.06,8.06,0,0,0,11,9.14L9.14,11a8.08,8.08,0,0,0,0,11.42l1,1a.91.91,0,0,1,.17,1l0,0a.88.88,0,0,1-.82.57H8.08A8.09,8.09,0,0,0,0,33.11V35.8a8.09,8.09,0,0,0,8.08,8.08H9.43a.89.89,0,0,1,.82.56l0,.06a.92.92,0,0,1-.18,1l-1,1a8.06,8.06,0,0,0,0,11.42l1.9,1.9a8.06,8.06,0,0,0,11.42,0l1-1a.89.89,0,0,1,1-.17l.05,0a.88.88,0,0,1,.57.82v1.36a8.09,8.09,0,0,0,8.08,8.07H35.8a8.09,8.09,0,0,0,8.08-8.07V59.48a.88.88,0,0,1,.57-.82l0,0a.89.89,0,0,1,1,.17l1,1a8.06,8.06,0,0,0,11.42,0l1.9-1.9a8.06,8.06,0,0,0,0-11.42l-1-1a.89.89,0,0,1-.17-1l0,0a.88.88,0,0,1,.82-.57h1.36a8.09,8.09,0,0,0,8.07-8.08V33.11A8.09,8.09,0,0,0,60.84,25ZM63.53,35.8a2.69,2.69,0,0,1-2.69,2.69H59.48a6.27,6.27,0,0,0-5.8,3.9l0,0A6.27,6.27,0,0,0,55,49.3l1,1a2.72,2.72,0,0,1,.78,1.91,2.66,2.66,0,0,1-.79,1.9L54.06,56a2.69,2.69,0,0,1-3.81,0l-1-1a6.27,6.27,0,0,0-6.87-1.34h0a6.29,6.29,0,0,0-3.9,5.8v1.36a2.69,2.69,0,0,1-2.69,2.69H33.11a2.7,2.7,0,0,1-2.69-2.69V59.48a6.27,6.27,0,0,0-3.91-5.8l0,0A6.51,6.51,0,0,0,24,53.18,6.21,6.21,0,0,0,19.62,55l-1,1a2.72,2.72,0,0,1-1.91.78,2.66,2.66,0,0,1-1.9-.79L13,54.06a2.69,2.69,0,0,1,0-3.81l1-1a6.29,6.29,0,0,0,1.34-6.86l0,0a6.26,6.26,0,0,0-5.8-3.9H8.08a2.69,2.69,0,0,1-2.7-2.69V33.11a2.7,2.7,0,0,1,2.7-2.69H9.43a6.26,6.26,0,0,0,5.8-3.91l0,0a6.29,6.29,0,0,0-1.34-6.86l-1-1a2.7,2.7,0,0,1,0-3.81l1.9-1.9a2.69,2.69,0,0,1,3.81,0l1,1a6.29,6.29,0,0,0,6.86,1.34l0,0a6.26,6.26,0,0,0,3.9-5.8V8.08a2.7,2.7,0,0,1,2.69-2.7H35.8a2.69,2.69,0,0,1,2.69,2.7V9.43a6.27,6.27,0,0,0,3.91,5.8l0,0a6.31,6.31,0,0,0,6.87-1.34l1-1a2.69,2.69,0,0,1,3.81,0l1.9,1.9a2.71,2.71,0,0,1,0,3.81l-1,1a6.26,6.26,0,0,0-1.35,6.85l0,.05a6.27,6.27,0,0,0,5.8,3.9h1.36a2.7,2.7,0,0,1,2.69,2.69Z"/></g></g></svg>