<svg xmlns="http://www.w3.org/2000/svg" xmlns:xlink="http://www.w3.org/1999/xlink" viewBox="0 0 33 33">
  <defs>
    <path id="a" d="M0 0h33v33H0z"/>
  </defs>
  <g fill="none" fill-rule="evenodd">
    <g>
      <mask id="b" fill="#fff">
        <use xlink:href="#a"/>
      </mask>
      <path fill="#FFFB1F" d="M30.2 30.5C28 32.7 21.9 33 16.5 33c-5.4 0-11.5-.3-13.7-2.5C.5 28.3 0 25.2 0 16.5s.5-11.8 2.8-14C5 .3 11.1 0 16.5 0c5.4 0 11.5.3 13.7 2.5 2.3 2.2 2.8 5.3 2.8 14s-.5 11.8-2.8 14" mask="url(#b)"/>
    </g>
    <path fill="#2E2C37" d="M8.4 30C.2 27.8 1.7 19 3 15.5 4 12.4 6.3 7 4 3.8c3.7 0 4.8 4 4.8 4s2.9-4 9.6-3.5c6.5.5 8.7-.6 9.1-1 3.1 2.5 5.3 17-.5 23C23.6 30 15.8 32 8.4 30z"/>
    <path fill="#FFF" d="M5 20c1.4-5 3.4-7.8 3.2-10.1 1.6 1.5 1.5 3.6 1.5 3.6s2.7-3.7 8.3-4c6.3-.2 9.3-2.3 9.6-3.6 2.6 16.6-3.1 23.8-16.4 23.8C7 29.7 3.5 24.9 5 20z"/>
    <path fill="#2E2C37" d="M8 20.8c4.5-8.9 14.8-5.7 18-9.6-.6 12-8 17.7-14.9 17.7-3.4 0-5.1-4.1-3.1-8.1z"/>
    <path fill="#FFFB1F" d="M11.1 20.7c3.1-2.3 7-1.3 8.8-2.8-.5 4.2-2.9 9.1-8.6 9.1-2.4 0-3.7-3.7-.2-6.3z"/>
    <path fill="#2E2C37" d="M11.9 27.8c-1.3 0-2.4-1-2.4-2.3 0-1.4 1-2.5 2.4-2.5s2.3 1.2 2.3 2.5-1 2.3-2.3 2.3"/>
  </g>
</svg>
