<svg xmlns="http://www.w3.org/2000/svg" viewBox="0 0 57.72 57.72"><defs><style>.cls-1{fill:none;}</style></defs><g id="Camada_2" data-name="Camada 2"><g id="Camada_1-2" data-name="Camada 1"><rect class="cls-1" width="57.72" height="57.72"/><path d="M53.12,31.05l-6.61-6.62,7.76-7.76A9.35,9.35,0,1,0,41.05,3.45l-7.76,7.77L26.67,4.6a2.54,2.54,0,0,0-3.6,0L1.43,26.24a2.55,2.55,0,0,0,0,3.61L27.88,56.3a2.55,2.55,0,0,0,3.6,0L53.12,34.66A2.55,2.55,0,0,0,53.12,31.05ZM31.49,16.63a2.55,2.55,0,0,0,3.6,0l9.57-9.57a4.24,4.24,0,1,1,6,6L41.1,22.63a2.55,2.55,0,0,0,0,3.61l6.61,6.61-6,6L18.86,16l6-6ZM24.87,46.07l4.21-4.2a2.55,2.55,0,0,0-3.61-3.61l-4.21,4.21-6-6,4.21-4.21a2.55,2.55,0,1,0-3.61-3.61l-4.21,4.21L6.84,28l8.41-8.41L38.1,42.47l-8.42,8.42Z"/></g></g></svg>