<svg xmlns="http://www.w3.org/2000/svg" viewBox="0 0 57.72 57.72"><defs><style>.cls-1{fill:none;}</style></defs><g id="Camada_2" data-name="Camada 2"><g id="Camada_1-2" data-name="Camada 1"><rect class="cls-1" width="57.72" height="57.72"/><path d="M56.73,23.12l-.06-.26c-.06-.29-.13-.59-.2-.87l-.15-.58c0-.19-.11-.37-.16-.55s-.17-.59-.27-.88a2.25,2.25,0,0,0-.08-.24A28.42,28.42,0,0,0,44.51,5.1l-.23-.16-.76-.46L43,4.17l-.49-.27c-.27-.15-.54-.3-.82-.44l-.21-.1A28.37,28.37,0,0,0,23,1h0c-.38.08-.75.17-1.12.27l-.33.08-.8.23-.63.2L19.56,2l-.9.33-.19.08A28.22,28.22,0,0,0,5.78,12.21l0,0c-.22.31-.44.62-.64.94-.07.09-.13.19-.19.28-.15.24-.3.48-.44.72s-.23.37-.33.55S4,15,3.9,15.19s-.31.56-.45.84l-.09.19a28.54,28.54,0,0,0-2.74,9v.18A28.36,28.36,0,0,0,6.33,46.26a2.31,2.31,0,0,0,1.91.89,1.8,1.8,0,0,0,.52,0l11.66-1.11c.08,0,.16,0,.25-.07l.21,0a2,2,0,0,0,.59-.33L43.2,26.91a1.91,1.91,0,0,0,.2-2.68L34.58,14a1.89,1.89,0,0,0-2.68-.2L10.17,32.49l0,0a1.68,1.68,0,0,0-.4.51l-.06.15a2.18,2.18,0,0,0-.11.27L7.9,40.17a23.9,23.9,0,0,1-.82-21h0c.13-.29.26-.58.4-.87a2.1,2.1,0,0,0,.13-.26c.1-.2.21-.39.32-.59s.18-.34.28-.51.13-.22.2-.33l.45-.74a.35.35,0,0,0,.05-.08A24,24,0,0,1,22.3,6l.25-.08.68-.17.54-.13.41-.08c.27,0,.54-.11.82-.15l.12,0A24,24,0,0,1,39.4,7.51l.21.1.65.35.44.24.41.24.66.41.17.11A23.88,23.88,0,0,1,52.67,29.42v.06c0,.34,0,.68-.06,1a1.09,1.09,0,0,1,0,.18c0,.4-.07.8-.12,1.21s-.11.8-.19,1.2l0,.17c-.07.34-.13.68-.21,1v0A23.86,23.86,0,0,1,25.82,52.49a2.32,2.32,0,1,0-.59,4.6,28,28,0,0,0,3.64.24A28.35,28.35,0,0,0,46,51.53l.22-.14a28.2,28.2,0,0,0,5.57-5.73l0,0,.63-.9.18-.27.46-.73c.11-.18.22-.36.32-.55l.3-.51c.16-.29.32-.59.47-.89a2.12,2.12,0,0,1,.11-.21,28.51,28.51,0,0,0,2.41-18.45ZM39.28,25.27,20.44,41.5,18.5,39.25,37.35,23ZM32.94,17.9l1.93,2.25L16,36.38l-1.93-2.25ZM12.37,38l4,4.69-5.33.51Z"/></g></g></svg>