<svg xmlns="http://www.w3.org/2000/svg" viewBox="0 0 58.47 56.05"><g id="Camada_2" data-name="Camada 2"><g id="Camada_1-2" data-name="Camada 1"><path d="M58.25,21.09a4.34,4.34,0,0,1-1.1,4.47L46.68,35.76a.82.82,0,0,0-.24.77L48.9,50.94a4.37,4.37,0,0,1-4.28,5.11,4.28,4.28,0,0,1-2-.51l-12.94-6.8a.91.91,0,0,0-.82,0L15.9,55.54a4.36,4.36,0,0,1-6.33-4.6L12,36.53a.88.88,0,0,0-.24-.77L1.32,25.56a4.36,4.36,0,0,1,2.42-7.44L18.21,16a.9.9,0,0,0,.66-.47L25.34,2.43A4.28,4.28,0,0,1,29.22,0a4.34,4.34,0,0,1,3.92,2.43L39.6,15.54a.9.9,0,0,0,.66.47l14.47,2.11A4.33,4.33,0,0,1,58.25,21.09Zm-3.55,2a.87.87,0,0,0-.49-1.48L39.75,19.47a4.31,4.31,0,0,1-3.28-2.39L30,4a.75.75,0,0,0-.41-.4,1,1,0,0,0-.38-.09.86.86,0,0,0-.79.49L22,17.08a4.29,4.29,0,0,1-3.28,2.39L4.22,21.58a.82.82,0,0,0-.7.59.86.86,0,0,0,.22.89L14.22,33.27a4.35,4.35,0,0,1,1.25,3.86L13,51.53a.87.87,0,0,0,1.27.91l12.93-6.8a4.33,4.33,0,0,1,2-.51,4.28,4.28,0,0,1,2,.51l12.94,6.8a.86.86,0,0,0,1.26-.91L43,37.11a4.36,4.36,0,0,1,1.25-3.86Z"/></g></g></svg>