<svg xmlns="http://www.w3.org/2000/svg" viewBox="0 0 295.05 63.99"><g id="Camada_2" data-name="Camada 2"><g id="Camada_1-2" data-name="Camada 1"><path d="M28.47,62.85a6,6,0,0,1-4.1-1.58L2.9,41.3A8.89,8.89,0,0,1,0,34.79H0a8.86,8.86,0,0,1,2.9-6.51l21.47-20a6.11,6.11,0,0,1,8.31.11,5.27,5.27,0,0,1-.3,7.7L13.28,33.88a1.22,1.22,0,0,0,0,1.82l19.1,17.76a5.32,5.32,0,0,1,.07,7.92A6,6,0,0,1,28.47,62.85Z"/><path d="M77,62.85q-3.36-7.07-6.61-14.68T64.23,33.12q-2.94-7.44-5.4-14.25c-1.64-4.54-3.06-8.58-4.25-12.15H68.51Q70.09,11.6,72,17.22T76,28.42l3.83,10.7q1.83,5.12,3.51,8.83,1.59-3.69,3.46-8.81t3.88-10.69q2-5.58,3.93-11.21T98.07,6.72h13.45q-1.89,5.37-4.34,12.17t-5.37,14.24Q98.9,40.59,95.66,48.2T89.08,62.85Z"/><path d="M153.31,41.47a27.72,27.72,0,0,1-1.46,9.19,19.89,19.89,0,0,1-4.21,7.13,18.87,18.87,0,0,1-6.6,4.58A22.23,22.23,0,0,1,132.41,64a22,22,0,0,1-8.54-1.62,18.87,18.87,0,0,1-6.6-4.58A20.8,20.8,0,0,1,113,50.66a26.26,26.26,0,0,1-1.54-9.19A25.25,25.25,0,0,1,113,32.32a20.67,20.67,0,0,1,4.37-7A19.87,19.87,0,0,1,124,20.73a21.4,21.4,0,0,1,8.38-1.62,21.64,21.64,0,0,1,8.47,1.62,19.5,19.5,0,0,1,6.6,4.54,20.5,20.5,0,0,1,4.29,7.05A25.91,25.91,0,0,1,153.31,41.47Zm-12.31,0c0-3.73-.74-6.65-2.23-8.79a7.28,7.28,0,0,0-6.36-3.2,7.38,7.38,0,0,0-6.39,3.2c-1.52,2.14-2.27,5.06-2.27,8.79s.75,6.68,2.27,8.87a7.33,7.33,0,0,0,6.39,3.28,7.23,7.23,0,0,0,6.36-3.28Q141,47.05,141,41.47Z"/><path d="M179.63,63.66a30.07,30.07,0,0,1-8.54-1.13,12.53,12.53,0,0,1-5.18-3,9.83,9.83,0,0,1-2.6-4.62,25.26,25.26,0,0,1-.68-6.11V1.94L174.69,0V46.41a15.1,15.1,0,0,0,.25,2.91A4.59,4.59,0,0,0,177.85,53a10.94,10.94,0,0,0,3.48.73Z"/><path d="M187.81,9.64l12.07-1.95V20.25h14.5v10h-14.5v15a11.92,11.92,0,0,0,1.34,6.07c.89,1.51,2.68,2.27,5.39,2.27a22.3,22.3,0,0,0,4-.37,20.47,20.47,0,0,0,3.77-1l1.7,9.4a36.14,36.14,0,0,1-4.86,1.54,28.46,28.46,0,0,1-6.56.64,21.64,21.64,0,0,1-8.18-1.33,12.8,12.8,0,0,1-5.18-3.73A13.88,13.88,0,0,1,188.58,53a34.38,34.38,0,0,1-.77-7.53Z"/><path d="M237.87,19.11a28,28,0,0,1,8.91,1.22,13.88,13.88,0,0,1,5.71,3.48,12.93,12.93,0,0,1,3,5.51,27.32,27.32,0,0,1,.89,7.21V61.64c-1.73.37-4.13.82-7.21,1.33a69.69,69.69,0,0,1-11.18.77,35.17,35.17,0,0,1-7.49-.73,16.1,16.1,0,0,1-5.79-2.39A10.87,10.87,0,0,1,221,56.29a15,15,0,0,1-1.29-6.56,12.35,12.35,0,0,1,1.5-6.32,11.48,11.48,0,0,1,4-4.13A18.09,18.09,0,0,1,231,37.06a32.21,32.21,0,0,1,6.73-.69,39.64,39.64,0,0,1,4.17.2,17.44,17.44,0,0,1,3,.53V36A6.68,6.68,0,0,0,243,31q-1.86-1.86-6.48-1.86a42.11,42.11,0,0,0-6.07.44,26.32,26.32,0,0,0-5.19,1.26l-1.54-9.72c.71-.22,1.58-.45,2.64-.69s2.2-.46,3.44-.65,2.55-.35,3.93-.48A41.14,41.14,0,0,1,237.87,19.11Zm1,35.32c1.19,0,2.32,0,3.4-.08a24.16,24.16,0,0,0,2.59-.25V45c-.48-.11-1.21-.21-2.18-.32a23.9,23.9,0,0,0-2.67-.16,23,23,0,0,0-3.2.2,8.25,8.25,0,0,0-2.64.77A4.54,4.54,0,0,0,232.36,47a4.27,4.27,0,0,0-.65,2.43,4.13,4.13,0,0,0,1.91,3.92A10.47,10.47,0,0,0,238.84,54.43Z"/><path d="M293,30.94c-1.08-.27-2.34-.55-3.8-.85a23.36,23.36,0,0,0-4.7-.45,20.9,20.9,0,0,0-2.71.21,15.56,15.56,0,0,0-2.39.44V62.85H267.35V22.52A72.78,72.78,0,0,1,275,20.37a44.49,44.49,0,0,1,9.84-1c.65,0,1.43,0,2.35.12s1.84.19,2.76.32,1.83.3,2.75.49a13,13,0,0,1,2.35.69Z"/></g></g></svg>