<svg xmlns="http://www.w3.org/2000/svg" viewBox="0 0 57.81 57.72"><defs><style>.cls-1{fill:none;}</style></defs><g id="Camada_2" data-name="Camada 2"><g id="Camada_1-2" data-name="Camada 1"><rect class="cls-1" x="0.04" width="57.72" height="57.72"/><path d="M43.92,56.91h-30A13.9,13.9,0,0,1,0,43V26.63A12.51,12.51,0,0,1,4.93,16.7l18.42-14a9.35,9.35,0,0,1,11.27,0L52.89,16.6a12.56,12.56,0,0,1,4.92,9.93V43A13.9,13.9,0,0,1,43.92,56.91ZM29,6.17A3.88,3.88,0,0,0,26.6,7L8.17,21a7.13,7.13,0,0,0-2.81,5.66V43a8.54,8.54,0,0,0,8.53,8.52h30A8.54,8.54,0,0,0,52.45,43V26.53a7.13,7.13,0,0,0-2.81-5.66L31.37,7A3.89,3.89,0,0,0,29,6.17Z"/><path d="M28.9,47.33A14.59,14.59,0,0,1,14.33,32.75a2.68,2.68,0,0,1,5.36,0,9.22,9.22,0,1,0,18.43,0,2.68,2.68,0,0,1,5.36,0A14.6,14.6,0,0,1,28.9,47.33Z"/><path d="M34.92,16.65a8.38,8.38,0,0,0-6-2.5h0a8.47,8.47,0,1,0,0,16.94h0a6.45,6.45,0,0,0,.76,0h0l5.08-.65a1.59,1.59,0,0,0,1.38-1.79,1.65,1.65,0,0,0-.44-.92A8.5,8.5,0,0,0,34.92,16.65Zm-1,6a5,5,0,1,1-5-5,5,5,0,0,1,5,5Z"/></g></g></svg>