<?xml version="1.0" encoding="utf-8"?>
<!-- Generator: Adobe Illustrator 24.2.0, SVG Export Plug-In . SVG Version: 6.00 Build 0)  -->
<svg version="1.1" id="OBJECTS" xmlns="http://www.w3.org/2000/svg" xmlns:xlink="http://www.w3.org/1999/xlink" x="0px" y="0px"
	 viewBox="0 0 35.4 35.4" style="enable-background:new 0 0 35.4 35.4;" xml:space="preserve">
<style type="text/css">
	.st0{fill:#52555B;}
</style>
<g>
	<path class="st0" d="M7.4,13c0,0,0,0.1-0.1,0.1c-0.6,1.4-0.9,2.9-0.9,4.5c0,6.3,5.1,11.3,11.3,11.3C24,29.1,29,24,29,17.7
		c0-1.6-0.3-3.1-0.9-4.5c0,0,0-0.1-0.1-0.1c-1.8-3.9-5.7-6.7-10.3-6.7C13.1,6.4,9.2,9.1,7.4,13L7.4,13z M20.3,12.5h-5.2
		c0.7-2.6,1.8-4.1,2.6-4.1C18.6,8.4,19.6,9.9,20.3,12.5L20.3,12.5z M27,17.7c0,1.1-0.2,2.1-0.5,3.1h-3.6c0.1-1,0.2-2,0.2-3.1
		c0-1.1-0.1-2.1-0.2-3.1h3.6C26.8,15.6,27,16.6,27,17.7L27,17.7z M20.9,17.7c0,1.1-0.1,2.1-0.2,3.1h-6c-0.1-0.9-0.2-2-0.2-3.1
		c0-1.1,0.1-2.2,0.2-3.1h6C20.8,15.5,20.9,16.6,20.9,17.7L20.9,17.7z M17.7,27c-0.9,0-2-1.5-2.6-4.1h5.2C19.7,25.5,18.6,27,17.7,27
		L17.7,27z M8.4,17.7c0-1.1,0.2-2.2,0.5-3.1h3.6c-0.1,1-0.2,2.1-0.2,3.1c0,1,0.1,2.1,0.2,3.1H9C8.6,19.8,8.4,18.8,8.4,17.7L8.4,17.7
		z M14.1,9.2C14,9.4,13.9,9.7,13.7,10c-0.3,0.7-0.6,1.6-0.8,2.5h-2.9C11.1,11,12.5,9.9,14.1,9.2L14.1,9.2z M10,22.8h3
		c0.2,0.9,0.5,1.8,0.8,2.5c0.1,0.3,0.3,0.6,0.4,0.9C12.4,25.6,11,24.4,10,22.8L10,22.8z M21.3,26.3c0.1-0.3,0.3-0.6,0.4-0.9
		c0.3-0.8,0.6-1.6,0.8-2.5h3C24.4,24.4,23,25.6,21.3,26.3L21.3,26.3z M25.4,12.5h-2.9c-0.2-0.9-0.5-1.7-0.8-2.5
		c-0.1-0.3-0.3-0.6-0.4-0.9C22.9,9.9,24.4,11,25.4,12.5L25.4,12.5z M25.4,12.5"/>
	<path class="st0" d="M33.3,9.2c0-0.1,0.1-0.3,0.1-0.4V5.2c0-0.9-0.7-1.6-1.6-1.6h-3.6c-0.9,0-1.6,0.7-1.6,1.6v3.6
		c0,0.9,0.7,1.6,1.6,1.6h3.4c1.2,2.2,1.8,4.8,1.8,7.3c0,4.2-1.6,8.1-4.6,11.1c-3,3-6.9,4.6-11.1,4.6c-1.2,0-2.5-0.1-3.6-0.4
		c-0.6-0.1-1.1,0.2-1.3,0.8c-0.1,0.6,0.2,1.1,0.8,1.3c1.3,0.3,2.7,0.5,4.1,0.5c4.7,0,9.2-1.8,12.5-5.2c3.3-3.3,5.2-7.8,5.2-12.5
		C35.4,14.7,34.7,11.8,33.3,9.2L33.3,9.2z M28.6,5.7h2.7v2.7h-2.7V5.7z M28.6,5.7"/>
	<path class="st0" d="M8.3,26.3H4.7c0,0,0,0,0,0c-1.7-2.5-2.6-5.5-2.6-8.6c0-4.2,1.6-8.1,4.6-11.1c3-3,6.9-4.6,11.1-4.6
		c1.6,0,3.1,0.2,4.6,0.7c0.5,0.2,1.1-0.1,1.3-0.7c0.2-0.5-0.1-1.1-0.7-1.3C21.2,0.3,19.5,0,17.7,0C13,0,8.5,1.8,5.2,5.2
		C1.8,8.5,0,13,0,17.7c0,3.6,1.1,7,3.1,10c0,0.1,0,0.1,0,0.2v3.6c0,0.9,0.7,1.6,1.6,1.6h3.6c0.9,0,1.6-0.7,1.6-1.6v-3.6
		C9.9,27,9.2,26.3,8.3,26.3L8.3,26.3z M7.8,31H5.1v-2.7h2.7V31z M7.8,31"/>
</g>
</svg>
