<?xml version="1.0" encoding="utf-8"?>
<!-- Generator: Adobe Illustrator 24.2.0, SVG Export Plug-In . SVG Version: 6.00 Build 0)  -->
<svg version="1.1" id="OBJECTS" xmlns="http://www.w3.org/2000/svg" xmlns:xlink="http://www.w3.org/1999/xlink" x="0px" y="0px"
	 viewBox="0 0 29.6 29.7" style="enable-background:new 0 0 29.6 29.7;" xml:space="preserve">
<style type="text/css">
	.st0{fill:#52555B;}
</style>
<path class="st0" d="M21.5,14.3c-1.9,0-3.5,1.6-3.5,3.5s1.6,3.5,3.5,3.5s3.5-1.6,3.5-3.5S23.4,14.3,21.5,14.3z M21.5,19
	c-0.6,0-1.2-0.5-1.2-1.2c0-0.6,0.5-1.2,1.2-1.2c0.6,0,1.2,0.5,1.2,1.2C22.6,18.5,22.1,19,21.5,19z M21.5,9.6c-4.5,0-8.1,3.6-8.1,8.1
	v0.2c0,2.2,1.3,4.8,3.7,7.7c1.8,2,3.5,3.5,3.6,3.5l0.7,0.6l0.7-0.6c0.1-0.1,1.8-1.5,3.6-3.5c2.5-2.9,3.7-5.4,3.7-7.7v-0.2
	C29.6,13.2,25.9,9.6,21.5,9.6z M27.2,17.9c0,3-3.6,6.9-5.7,8.8c-0.6-0.6-1.6-1.5-2.6-2.6c-2.1-2.4-3.2-4.5-3.2-6.1v-0.2
	c0-3.2,2.6-5.7,5.7-5.7c3.2,0,5.7,2.6,5.7,5.7V17.9L27.2,17.9z M16.4,29.7L6,29.7c-1.9,0-3.5-1.6-3.5-3.5V13.3l-0.5,0.5
	c-0.5,0.4-1.2,0.4-1.7-0.1l0,0c-0.4-0.5-0.4-1.2,0.1-1.7L13.9,0.2c0.4-0.3,0.9-0.3,1.3,0l8.3,7.2c-0.7-0.1-1.3-0.2-2-0.2
	c-0.5,0-0.9,0-1.4,0.1c-0.1,0-0.3,0-0.4-0.1l-4.8-4.1c-0.2-0.2-0.5-0.2-0.7,0l-9.4,8.2v15c0,0.6,0.5,1.2,1.2,1.2h9.3
	c0.2,0,0.3,0.1,0.5,0.2c0.4,0.4,0.7,0.8,1,1.1C17.2,29.1,16.9,29.7,16.4,29.7z"/>
</svg>
