<svg xmlns="http://www.w3.org/2000/svg" viewBox="0 0 53.25 56.77"><g id="Camada_2" data-name="Camada 2"><g id="Camada_1-2" data-name="Camada 1"><path d="M52.22,39.66a5.73,5.73,0,0,0-.82-.89l-.08-.06,0,0a.31.31,0,0,1-.09-.07,16.63,16.63,0,0,1-5.69-12.52V18.86A18.86,18.86,0,0,0,30.46.44L29.84.31c-.21,0-.41-.07-.62-.09a12.29,12.29,0,0,0-1.5-.16,10,10,0,0,0-2.19,0A12.29,12.29,0,0,0,24,.22c-.21,0-.41.05-.62.09l-.62.13a18.85,18.85,0,0,0-15,18.42v7.22a16.6,16.6,0,0,1-.38,3.53,16.63,16.63,0,0,1-5.31,9L2,38.67l-.05,0-.08.06a5.73,5.73,0,0,0-.82.89,5.28,5.28,0,0,0,4.25,8.41H20.91a6.21,6.21,0,0,0-.51,2.48q0,.31,0,.63a6.23,6.23,0,0,0,12.39,0q0-.32,0-.63a6.21,6.21,0,0,0-.51-2.48H48a5.28,5.28,0,0,0,4.25-8.41Z"/></g></g></svg>