<svg xmlns="http://www.w3.org/2000/svg" viewBox="0 0 946.5 230.59"><defs><style>.cls-1{fill:none;}.cls-2{fill:#334a9a;}.cls-3{fill:#fff;}</style></defs><g id="Camada_2" data-name="Camada 2"><g id="Camada_1-2" data-name="Camada 1"><path class="cls-1" d="M115.3,47.19a68.2,68.2,0,1,0,48.2,20A68.18,68.18,0,0,0,115.3,47.19Zm-.15,126.5a58.38,58.38,0,1,1,58.44-58.32A58.37,58.37,0,0,1,115.15,173.69Z"/><path class="cls-1" d="M115.26,65.38a49.93,49.93,0,1,0,49.88,50A49.94,49.94,0,0,0,115.26,65.38Zm39.22,50A39.3,39.3,0,1,1,115.25,76a39.3,39.3,0,0,1,39.23,39.37Z"/><path class="cls-1" d="M115.21,84.55a30.74,30.74,0,1,0,30.72,30.79v0A30.74,30.74,0,0,0,115.21,84.55Z"/><path class="cls-2" d="M115.27,56.94a58.38,58.38,0,1,0,58.32,58.43A58.36,58.36,0,0,0,115.27,56.94Zm-.11,108.3a49.93,49.93,0,1,1,50-49.88A49.94,49.94,0,0,1,115.16,165.24Z"/><path class="cls-2" d="M115.25,76a39.3,39.3,0,1,0,39.23,39.37v0A39.35,39.35,0,0,0,115.25,76Zm30.68,39.33a30.74,30.74,0,1,1-30.72-30.79,30.76,30.76,0,0,1,30.72,30.79Z"/><path class="cls-1" d="M115.3,47.19a68.2,68.2,0,1,0,48.2,20A68.18,68.18,0,0,0,115.3,47.19Z"/><path class="cls-3" d="M219.7,67v0A114.81,114.81,0,0,0,115.58,0h-.25A115.3,115.3,0,0,0,115,230.59q5.13,0,10.32-.45v.07l69-8.81a21.78,21.78,0,0,0,12.84-36.79,115.69,115.69,0,0,0,12.42-20.81c0-.08.07-.17.11-.25A115.8,115.8,0,0,0,219.7,67ZM115.19,183.56a68.18,68.18,0,1,1,68.24-68.13A68.18,68.18,0,0,1,115.19,183.56Z"/><path class="cls-3" d="M347.8,162.15h-58a9.07,9.07,0,0,1-9.07-9.07V31a9.07,9.07,0,0,0-9.07-9.07h-36A9.07,9.07,0,0,0,226.55,31v18.4a98.37,98.37,0,0,0,4.91,30.23A115.8,115.8,0,0,1,228.94,158a33.29,33.29,0,0,0-2.39,12.27h0A38.44,38.44,0,0,0,265,208.66H347.8a9.07,9.07,0,0,0,9.07-9.06V171.22A9.08,9.08,0,0,0,347.8,162.15Z"/><path class="cls-3" d="M422.6,204.5H389a9.07,9.07,0,0,1-9.07-9.07V31A9.07,9.07,0,0,1,389,21.92H422.6A9.08,9.08,0,0,1,431.67,31V195.43A9.08,9.08,0,0,1,422.6,204.5Z"/><path class="cls-3" d="M454.07,47.19a18.89,18.89,0,0,1,15-18.51q8.57-1.8,19.06-3.46a279.23,279.23,0,0,1,43.73-3.3q23.25,0,38.71,6.08T595,45.18a67.14,67.14,0,0,1,12.84,26.38,140.62,140.62,0,0,1,3.82,34v94a9.07,9.07,0,0,1-9.07,9.06H569a9.07,9.07,0,0,1-9.07-9.06V111.82q0-25-6.6-35.4T528.7,66q-5.55,0-11.8.52l-2.94.26a9,9,0,0,0-8.17,9V199.6a9.07,9.07,0,0,1-9.07,9.06H463.14a9.07,9.07,0,0,1-9.07-9.06Z"/><path class="cls-3" d="M792.72,183.28q-8.69-13.89-19.09-27.81t-21.52-26.95a253.13,253.13,0,0,0-17.93-19.1,4.75,4.75,0,0,1,0-6.82Q752.92,84,769,66.44c8.23-9,16.6-18.37,26.28-29.49a9.07,9.07,0,0,0-6.83-15H751a9.09,9.09,0,0,0-7,3.33c-5,6.11-8.37,10.13-12.22,14.64Q725,47.83,717.37,56.63T701.59,74.4L685.81,91.76V31a9.07,9.07,0,0,0-9.07-9.07H643.17A9.07,9.07,0,0,0,634.1,31V199.6a9.07,9.07,0,0,0,9.07,9.06h33.57a9.07,9.07,0,0,0,9.07-9.06v-71a141.47,141.47,0,0,1,17.5,17.05q8.84,10.09,16.8,21.05t15.07,21.92q5.48,8.44,10,15.74a9,9,0,0,0,7.69,4.26H792a9.06,9.06,0,0,0,7.86-13.61Q796.54,189.4,792.72,183.28Z"/><path class="cls-3" d="M871.33,167.88q13.83,0,19.55-2.7t5.74-10.45q0-6.06-7.42-10.62t-22.59-10.28a228.45,228.45,0,0,1-21.4-9.1,62.82,62.82,0,0,1-16.35-11.29,45.6,45.6,0,0,1-10.45-15.67q-3.7-9.1-3.71-21.91,0-24.95,18.54-39.44t50.9-14.5a163.2,163.2,0,0,1,31,2.87q7.07,1.37,12.74,2.84a11.73,11.73,0,0,1,8.5,13.92L932.75,57.8a11.72,11.72,0,0,1-14.46,8.76q-3.57-1-7.35-1.83a103.72,103.72,0,0,0-23.09-2.36q-23.6,0-23.59,13.15a13.46,13.46,0,0,0,1,5.39,11.43,11.43,0,0,0,4,4.55,55.34,55.34,0,0,0,8.26,4.74q5.22,2.55,13.31,5.61a206.49,206.49,0,0,1,27.31,12.06q10.78,6,17,12.84A39.64,39.64,0,0,1,944,136a67.73,67.73,0,0,1,2.53,19.5q0,26.23-19.72,39.69T871,208.66q-23.61,0-39.27-4-6.63-1.71-11.53-3.18a11.72,11.72,0,0,1-8.14-13.61l3.64-17.62a11.76,11.76,0,0,1,15-8.82q6.9,2.12,14,3.62A127.91,127.91,0,0,0,871.33,167.88Z"/></g></g></svg>