<svg xmlns="http://www.w3.org/2000/svg" viewBox="0 0 60.9 60.9"><g id="Camada_2" data-name="Camada 2"><g id="Camada_1-2" data-name="Camada 1"><path d="M30.48,26.87a6,6,0,1,0-6-6A6,6,0,0,0,30.48,26.87Z"/><path d="M30.45,0A30.45,30.45,0,1,0,60.9,30.45,30.45,30.45,0,0,0,30.45,0Zm0,10.8h0a10.09,10.09,0,0,1,8.05,16.13,2,2,0,0,1,.52,1.1,1.89,1.89,0,0,1-1.65,2.12l-6,.78c-.3,0-.6.05-.9.05a10.09,10.09,0,1,1,0-20.18Zm0,39.31A17.38,17.38,0,0,1,13.09,32.75a3.2,3.2,0,1,1,6.39,0,11,11,0,0,0,22,0,3.19,3.19,0,1,1,6.38,0A17.38,17.38,0,0,1,30.45,50.11Z"/></g></g></svg>